# xmcd
#
# Track frame offsets: 
#        150
#        19229
#        38101
#        51843
#        68406
#        84095
#        102635
#        120385
#        137868
#        150754
#        168373
#        184104
#        204224
#        218210
#        235549
#        251965
#
# Disc length: 3583 seconds
#
# Revision: 2
# Processed by: cddbd v1.5.2PL0 Copyright (c) Steve Scherf et al.
# Submitted via: ExactAudioCopy v0.99pb4
#
DISCID=ca0dfd10
DTITLE=Reba McEntire - Reba: 50 Greatest Hits [Disc 3]
DYEAR=2008
DGENRE=Country
TTITLE0=Ring On Her Finger, Time On Her Hands
TTITLE1=Starting Over Again
TTITLE2=The Fear Of Being Alone
TTITLE3=How Was I To Know
TTITLE4=I'd Rather Ride Around With You
TTITLE5=What If It's You
TTITLE6=If You See Him, If You See Her (with Brooks and Dunn)
TTITLE7=Forever Love
TTITLE8=Wrong Night
TTITLE9=One Honest Heart
TTITLE10=What Do You Say
TTITLE11=I'll Be
TTITLE12=I'm A Survivor
TTITLE13=Someone
TTITLE14=He Gets That From Me
TTITLE15=Because Of You (with Kelly Clarkson)
EXTD=Reba 50 Greatest Hits - disc 3 YEAR: 2008
EXTT0=
EXTT1=
EXTT2=
EXTT3=
EXTT4=
EXTT5=
EXTT6=
EXTT7=
EXTT8=
EXTT9=
EXTT10=
EXTT11=
EXTT12=
EXTT13=
EXTT14=
EXTT15=
PLAYORDER=
